<?xml version="1.0" encoding="iso-8859-1"?>
<!-- Generator: Adobe Illustrator 19.0.0, SVG Export Plug-In . SVG Version: 6.00 Build 0)  -->
<svg version="1.1" id="Layer_1" xmlns="http://www.w3.org/2000/svg" xmlns:xlink="http://www.w3.org/1999/xlink" x="0px" y="0px"
	 viewBox="0 0 457.37 457.37" style="enable-background:new 0 0 457.37 457.37;" xml:space="preserve">
<g id="XMLID_138_">
	<g>
		<g>
			<path d="M260.124,344.898c2.631,5.815,8.421,9.539,14.784,9.539c0.104,0,0.209-0.001,0.313-0.003l14.49-0.278
				c-40.388-115.178-33.799-96.375-39.523-112.754c-0.038,24.355,2.215,52.642,5.325,74.59c0.618,4.355-0.465,8.771-2.88,12.348
				L260.124,344.898z"/>
			<path d="M456.337,375.287l-31.219-90.352c-0.071-0.206-0.158-0.401-0.236-0.603c-7.769,11.335-17.524,22.26-28.704,31.626
				l24.73,71.572c3.38,9.785,14.054,14.974,23.835,11.594C454.527,395.742,459.718,385.07,456.337,375.287z"/>
			<path d="M425.908,419.177h-55.86v-66.561l8.255-0.158c8.962-0.172,16.086-7.576,15.914-16.536
				c-0.104-5.416-2.843-10.153-6.976-13.023c-7.53,5.412-16.285,10.66-26.321,15.164c-16.921,7.593-37.489,13.06-61.969,13.621
				c0,7.604,0,61.146,0,67.494h-55.859c-8.963,0-16.228,7.266-16.228,16.228c0,8.963,7.265,16.228,16.228,16.228h182.816
				c8.963,0,16.228-7.266,16.228-16.228C442.136,426.443,434.871,419.177,425.908,419.177z"/>
			<path d="M251.922,207.17l45.99,131.613c37.244-0.666,69.321-13.277,95.377-37.511c15.512-14.427,24.309-29.046,27.572-35.087
				c-9.316-15.742-54.473-89.249-96.703-109.446c-4.816-2.303-10.297-3.471-16.289-3.471c-4.969,0-10.218,0.861-14.401,2.361
				l-30.3,10.871C256.201,179.499,253.523,192.7,251.922,207.17z"/>
			<path d="M242.713,317.807c-1.891-13.343-9.91-75.672-2.099-123.403c6.562-40.103,28.311-55.561,28.311-55.561v-0.001
				c4.273-2.015,7.969-4.824,10.968-8.185c8.139-9.123,11.158-22.3,6.738-34.617c-4.106-11.446-13.645-19.372-24.669-21.937
				c-4.408-1.026-9.052-1.192-13.684-0.381c0,0-31.485,1.302-54.822,41.096c13.795,2.603,24.878,13.932,26.514,28.611
				c2.007,18.01-10.965,34.237-28.975,36.244l-19.867,2.215c-12.972,65.166-7.894,118.91-6.178,132.931
				c0.491,4.012,2.231,6.119,4.213,9.002c1.013,1.474,2.799,2.219,4.564,1.897c1.762-0.322,3.171-1.649,3.598-3.389l8.789-35.831
				l-0.803,51.117c-0.035,2.208,1.483,4.138,3.637,4.626c9.113,2.063,9.103,2.131,9.934,2.131c2.116,0,4.03-1.448,4.538-3.593
				l9.77-41.245l5.206,32.138c0.577,3.565,4.814,5.136,7.58,2.853l15.086-12.458C242.317,321.031,242.941,319.417,242.713,317.807z"
				/>
			<circle cx="106.155" cy="42.091" r="36.355"/>
			<path d="M114.451,259.523l5.917-71.978l-7.462,0.832c-6.421,0.715-15.787,2.939-22.927-6.069l-34.53-43.821l43.434,31.571
				c3.452,2.509,7.824,3.77,12.344,3.268l78.091-8.705c9.698-1.081,16.683-9.819,15.602-19.516
				c-1.081-9.698-9.823-16.679-19.516-15.602l-71.285,7.946l-37.896-27.545l34.395,12.697l14.91-1.662
				c-0.916-12.871-11.101-23.506-24.36-24.596l-47.286-3.887c-14.644-1.204-27.492,9.692-28.696,24.337L16.783,253.07l11.145,72.659
				L0.76,424.821c-3.096,11.292,3.548,22.956,14.841,26.052c11.286,3.096,22.956-3.546,26.052-14.841l28.363-103.448
				c0.787-2.871,0.961-5.877,0.51-8.82L60.23,256.641l8.249,0.678l25.291,68.955l-21.127,99.762
				c-2.426,11.455,4.894,22.708,16.349,25.133c11.453,2.427,22.708-4.895,25.133-16.349l22.391-105.728
				c0.826-3.899,0.536-7.951-0.836-11.693L114.451,259.523z"/>
		</g>
	</g>
</g>
<g>
</g>
<g>
</g>
<g>
</g>
<g>
</g>
<g>
</g>
<g>
</g>
<g>
</g>
<g>
</g>
<g>
</g>
<g>
</g>
<g>
</g>
<g>
</g>
<g>
</g>
<g>
</g>
<g>
</g>
</svg>
